<svg width="183" height="89" viewBox="0 0 183 89" fill="none" xmlns="http://www.w3.org/2000/svg">
<path d="M7.56627 38.7258C7.21623 37.2626 7.06049 35.4052 7.06049 32.9288C7.06049 30.4525 7.21623 28.595 7.56627 27.1318C8.49971 22.9669 10.9495 20.6594 14.1775 20.6594C16.5888 20.6594 18.4556 22.0668 19.7386 24.3178C19.8553 24.4866 19.8553 24.8244 19.7001 24.9932L17.5998 27.6949C17.4441 27.8638 17.2498 27.8638 17.1331 27.5819C16.3163 26.2876 15.4996 25.5563 14.1775 25.5563C12.7388 25.5563 11.6496 26.5695 11.1829 28.595C10.9495 29.777 10.8719 31.1279 10.8719 32.9288C10.8719 34.7297 10.9495 36.1371 11.2219 37.3191C11.6887 39.2889 12.7773 40.3579 14.2166 40.3579C15.5386 40.3579 16.3945 39.6266 17.1722 38.3316C17.2888 38.1069 17.4831 38.1069 17.6389 38.2758L19.7386 40.9768C19.8944 41.1456 19.8553 41.4275 19.7777 41.6522C18.4942 43.8474 16.6278 45.254 14.2166 45.254C10.9886 45.1982 8.49971 42.9466 7.56627 38.7258Z" fill="#FFFFFD"/>
<path d="M78.9353 38.7258C78.5846 37.2626 78.4286 35.4052 78.4286 32.9288C78.4286 30.4525 78.5846 28.595 78.9353 27.1318C79.8705 22.9669 82.3249 20.6594 85.5589 20.6594C87.9746 20.6594 89.8836 22.0668 91.1304 24.3178C91.2473 24.4866 91.2473 24.8244 91.0918 24.9932L88.9876 27.6949C88.8316 27.8638 88.6369 27.8638 88.52 27.5819C87.7017 26.2876 86.8834 25.5563 85.5589 25.5563C84.1175 25.5563 83.0262 26.5695 82.5586 28.595C82.2862 29.777 82.208 31.1279 82.208 32.9288C82.208 34.7297 82.2862 36.1371 82.5586 37.3191C83.0262 39.2889 84.1175 40.3579 85.5589 40.3579C86.8834 40.3579 87.7408 39.6266 88.52 38.3316C88.6369 38.1069 88.8316 38.1069 88.9876 38.2758L91.0918 40.9768C91.2473 41.1456 91.2087 41.4275 91.1304 41.6522C89.845 43.8474 87.9746 45.254 85.5589 45.254C82.3249 45.1982 79.8705 42.9466 78.9353 38.7258Z" fill="#FFFFFD"/>
<path d="M162.533 44.7756C162.341 44.7756 162.188 44.6057 162.188 44.266V30.6797C162.188 27.6224 161.154 25.5281 159.202 25.5281C157.287 25.5281 156.177 27.6224 156.177 30.6797V44.266C156.177 44.5489 156.062 44.7756 155.832 44.7756H152.807C152.615 44.7756 152.462 44.6057 152.462 44.266V30.6797C152.462 27.6224 151.428 25.5281 149.475 25.5281C147.561 25.5281 146.45 27.6224 146.45 30.6797V44.266C146.45 44.5489 146.336 44.7756 146.106 44.7756H143.081C142.889 44.7756 142.736 44.6057 142.736 44.266V21.6785C142.736 21.3957 142.851 21.169 143.081 21.169H146.106C146.298 21.169 146.45 21.3388 146.45 21.6785V23.377H146.489C147.178 21.9052 148.556 20.6594 150.663 20.6594C152.539 20.6594 154.032 21.7915 154.989 23.7728H155.028C156.253 21.7915 157.823 20.6594 160.082 20.6594C163.758 20.6594 165.826 24.3961 165.826 29.4339V44.3229C165.826 44.6057 165.711 44.8324 165.481 44.8324L162.533 44.7756Z" fill="#FFFFFD"/>
<path d="M170.373 53.2078C170.177 53.2078 170.021 53.0374 170.021 52.6965V48.7775C170.021 48.493 170.138 48.2662 170.373 48.2662H170.96C172.252 48.2662 172.878 47.4141 173.388 45.4823L173.857 43.4943L167.945 21.1707C167.867 20.8869 168.024 20.6594 168.22 20.6594H171.548C171.743 20.6594 171.9 20.8298 171.939 21.1707L175.58 36.6209H175.658L179.143 21.1707C179.221 20.8869 179.338 20.6594 179.534 20.6594H182.706C182.901 20.6594 183.058 20.8298 182.979 21.1707L176.872 45.8802C175.463 51.5036 174.131 53.2649 171.43 53.2649L170.373 53.2078Z" fill="#FFFFFD"/>
<path d="M32.1347 37.3001C32.4097 36.0595 32.488 34.9307 32.488 32.9564C32.488 30.9821 32.4097 29.9106 32.1347 28.6126C31.6636 26.6383 30.6035 25.5669 29.1118 25.5669C27.6201 25.5669 26.5211 26.6949 26.05 28.6126C25.775 29.854 25.6967 30.9254 25.6967 32.9564C25.6967 34.9307 25.775 36.0595 26.05 37.3001C26.5211 39.2745 27.5812 40.3466 29.1118 40.3466C30.6035 40.4025 31.6636 39.2745 32.1347 37.3001ZM22.3993 38.7667C22.046 37.1309 21.8493 35.5517 21.8493 32.9564C21.8493 30.3617 22.0065 28.8385 22.3993 27.146C23.3021 23.0282 25.775 20.6594 29.0729 20.6594C32.3308 20.6594 34.8042 23.0282 35.7071 27.146C36.0604 28.7819 36.2565 30.3617 36.2565 32.9564C36.2565 35.5517 36.0998 37.0742 35.7071 38.7667C34.8042 42.8846 32.3308 45.254 29.0729 45.254C25.8145 45.254 23.3411 42.8846 22.3993 38.7667Z" fill="#FFFFFD"/>
<path d="M100.191 20.6594C97.5471 20.6594 95.7972 21.5644 94.5145 22.9775C94.3978 23.1471 94.3588 23.3736 94.4364 23.5992L95.6811 26.8223C95.7972 27.048 95.992 27.1048 96.1472 26.9351C96.9252 26.0309 98.0137 25.2956 99.8021 25.2956C102.408 25.2956 103.302 26.4262 103.379 28.9707V29.0275V29.1971V36.8299C103.379 39.5433 102.096 40.8436 99.8021 40.8436C98.0137 40.8436 97.0419 39.8826 97.0419 37.9038C97.0419 35.6985 98.0913 34.7375 100.502 34.7375H101.241C101.435 34.7375 101.591 34.5679 101.591 34.2286V31.1192C101.591 30.8367 101.474 30.6103 101.241 30.6103H101.085H99.9188C95.9529 30.6103 93.5036 32.9851 93.5036 38.0734C93.5036 42.992 95.9529 45.254 98.9079 45.254C101.163 45.254 102.679 44.1234 103.418 42.5399H103.457V44.2362C103.457 44.5187 103.574 44.7451 103.807 44.7451H106.607C106.801 44.7451 106.957 44.5755 106.957 44.2362V28.9139C106.879 23.1471 105.09 20.6594 100.191 20.6594Z" fill="#FFFFFD"/>
<path d="M61.3565 30.5876C61.2781 30.5876 61.1993 30.6443 61.1993 30.8135V30.9261V31.3213V33.9159V34.2544V34.4796C61.1993 34.5929 61.2387 34.7055 61.3565 34.7055H61.4348H69.679C69.9145 34.7055 70.0323 34.5363 70.0323 34.1978C70.0323 30.4184 69.8751 28.7826 69.4823 27.1468C68.5795 23.1415 66.1456 20.6594 62.8088 20.6594C59.5897 20.6594 57.0774 23.0289 56.1746 27.1468C55.8213 28.67 55.6251 30.531 55.6251 32.9571C55.6251 35.3825 55.8607 37.1876 56.214 38.7108C57.1168 42.8286 59.5508 45.254 62.966 45.254C65.9494 45.254 68.2262 43.6182 69.6395 41.2495C69.7573 41.0236 69.7573 40.7417 69.6001 40.5725L67.6373 38.0338C67.4806 37.8645 67.2844 37.8645 67.1272 38.1464C66.3028 39.4444 65.1644 40.4032 63.3193 40.4032C61.5137 40.4032 60.2181 39.1619 59.7075 36.8491C59.6292 36.5106 59.5508 36.1721 59.5114 35.8336C59.3936 34.8181 59.3153 33.8593 59.3153 32.4493C59.3542 31.0954 59.3936 30.2491 59.5114 29.1777V29.1211V29.0644C59.5508 28.7826 59.5897 28.5567 59.6292 28.3315C60.0609 26.4131 61.2781 25.285 62.8088 25.285C64.3399 25.285 65.5177 26.4131 65.9494 28.3315C66.0672 28.8952 66.1455 29.5155 66.1455 30.3058C66.1455 30.475 66.0672 30.5876 65.9494 30.5876H61.5526H61.3565Z" fill="#FFFFFD"/>
<path d="M51.9091 11.2433H48.9355C48.7474 11.2433 48.5966 11.4132 48.5966 11.7531V23.1948V32.6541V32.711V32.7679V34.0137C48.5588 35.3732 48.4459 36.2791 48.2956 37.0727C47.8812 39.0551 46.8653 40.0748 45.3971 40.0748C43.9668 40.0748 42.9504 38.9982 42.5364 37.0727C42.3106 35.9961 42.1976 34.8065 42.1976 32.6541C42.1976 30.5017 42.3106 29.3121 42.5364 28.2363C42.9504 26.31 43.929 25.2342 45.322 25.1773H46.6016C46.6768 25.1773 46.7146 25.0642 46.7146 24.9512V20.4757C46.7146 20.3627 46.6768 20.3058 46.6016 20.2496H45.5852H44.3807C41.7837 20.3058 39.9016 22.1752 39.1111 25.914C38.7345 27.7265 38.5464 29.369 38.5464 32.5411C38.5464 35.7131 38.6971 37.3557 39.1111 39.1682C39.9016 42.9631 41.8588 44.8325 44.4937 44.8325C46.6016 44.8325 47.8812 43.6429 48.5966 42.0572H48.6345V43.8128C48.6345 44.0958 48.7474 44.3227 48.9733 44.3227H51.9469C52.135 44.3227 52.2857 44.1527 52.2857 43.8128V11.5263C52.2479 11.4132 52.0972 11.2433 51.9091 11.2433Z" fill="#FFFFFD"/>
<path d="M131.675 30.5876C131.597 30.5876 131.518 30.6443 131.518 30.8135V30.9261V31.3213V33.9159V34.2544V34.4796C131.518 34.5929 131.557 34.7055 131.675 34.7055H131.753H139.998C140.233 34.7055 140.351 34.5363 140.351 34.1978C140.351 30.4184 140.194 28.7826 139.801 27.1468C138.898 23.1415 136.464 20.6594 133.127 20.6594C129.908 20.6594 127.396 23.0289 126.493 27.1468C126.14 28.67 125.944 30.531 125.944 32.9571C125.944 35.3825 126.179 37.1876 126.533 38.7108C127.435 42.8286 129.869 45.254 133.285 45.254C136.268 45.254 138.545 43.6182 139.958 41.2495C140.076 41.0236 140.076 40.7417 139.919 40.5725L137.956 38.0338C137.799 37.8645 137.603 37.8645 137.446 38.1464C136.621 39.4444 135.483 40.4032 133.638 40.4032C131.832 40.4032 130.537 39.1619 130.026 36.8491C129.948 36.5106 129.869 36.1721 129.83 35.8336C129.712 34.8181 129.634 33.8593 129.634 32.4493C129.673 31.0954 129.712 30.2491 129.83 29.1777V29.1211V29.0644C129.869 28.7826 129.908 28.5567 129.948 28.3315C130.379 26.4131 131.597 25.285 133.127 25.285C134.658 25.285 135.836 26.4131 136.268 28.3315C136.386 28.8952 136.464 29.5155 136.464 30.3058C136.464 30.475 136.386 30.5876 136.268 30.5876H131.871H131.675Z" fill="#FFFFFD"/>
<path d="M123.603 11.2433H120.493C120.296 11.2433 120.139 11.4124 120.139 11.7506V23.1347V32.5463V32.6029V32.6595V33.9556C120.099 35.3076 119.981 36.2097 119.824 36.9985C119.39 38.971 118.328 40.0421 116.793 40.0421C115.257 40.0421 114.234 38.971 113.801 36.9985C113.565 35.9281 113.447 34.7445 113.447 32.6029C113.447 30.4614 113.565 29.2778 113.801 28.2066C114.234 26.2908 115.257 25.2196 116.714 25.1637H118.052C118.249 25.1637 118.406 24.9947 118.406 24.6565V20.7674C118.406 20.4859 118.288 20.2602 118.052 20.2602H117.895H115.887H115.848H115.808H115.769C113.053 20.3168 111.046 22.1767 110.219 25.896C109.825 27.6994 109.628 29.3344 109.628 32.5463C109.628 35.7024 109.786 37.3933 110.219 39.1967C111.046 42.9725 113.092 44.8325 115.848 44.8325C118.052 44.8325 119.39 43.6489 120.178 42.0712H120.217V43.818C120.217 44.0996 120.335 44.3252 120.571 44.3252H123.681C123.878 44.3252 124.035 44.1562 124.035 43.818V11.694C123.957 11.4124 123.799 11.2433 123.603 11.2433Z" fill="#FFFFFD"/>
<path d="M4.48964 51.1006H3.85336C3.92981 51.0441 3.85336 50.8755 3.85336 51.1006V10.4094V5.67784C3.85336 5.90297 3.92981 5.7343 3.85336 5.67784H4.48964H71.9353H72.5716C72.4946 5.7343 72.5716 5.90297 72.5716 5.67784V50.1543C72.5716 50.8197 72.4946 50.9884 72.5716 51.1006H71.9353H4.48964ZM76.4249 0C76.3481 0.170352 76.3481 0.113327 76.4249 0C76.3481 0.113327 76.3481 0.113327 76.4249 0C76.2712 0.0570246 76.1939 0 75.7827 0H0.642226H0C0.0768468 0.113327 0 0.283679 0 0.946307V56.7784C0 56.4948 0.0381787 56.6081 0 56.7784H75.7827C76.1939 56.7784 76.2712 56.7221 76.4249 56.7784C76.3867 56.5518 76.4249 56.4377 76.4249 55.8321V0.946307V0Z" fill="#FFFFFD"/>
<path d="M79.0964 55.8649C79.0964 56.5522 79.2104 56.7784 79.7484 56.7784H90.1801C90.68 56.7784 90.8321 56.6089 90.8321 55.8649V52.2109C90.8321 51.5236 90.7182 51.2974 90.1801 51.2974H79.7484C79.1912 51.2974 79.0964 51.4669 79.0964 52.2109V55.8649Z" fill="#FFFFFD"/>
<path d="M17.2081 81.0461C17.4831 79.8054 17.5614 78.6767 17.5614 76.7023C17.5614 74.728 17.4831 73.6566 17.2081 72.3586C16.7369 70.3843 15.6769 69.3128 14.1852 69.3128C12.6935 69.3128 11.5945 70.4409 11.1234 72.3586C10.8484 73.6 10.77 74.6714 10.77 76.7023C10.77 78.6767 10.8484 79.8054 11.1234 81.0461C11.5945 83.0204 12.6545 84.0926 14.1852 84.0926C15.6769 84.1485 16.7369 83.0204 17.2081 81.0461ZM7.47268 82.5127C7.11933 80.8769 6.9227 79.2977 6.9227 76.7023C6.9227 74.1077 7.07991 72.5845 7.47268 70.892C8.3755 66.7741 10.8484 64.4054 14.1463 64.4054C17.4042 64.4054 19.8776 66.7741 20.7804 70.892C21.1338 72.5278 21.3299 74.1077 21.3299 76.7023C21.3299 79.2977 21.1732 80.8202 20.7804 82.5127C19.8776 86.6306 17.4042 89 14.1463 89C10.8878 89 8.41442 86.6306 7.47268 82.5127Z" fill="#FFFFFD"/>
<path d="M22.875 68.973C22.875 69.6602 22.9889 69.8865 23.527 69.8865H33.9587C34.4586 69.8865 34.6107 69.7169 34.6107 68.973V65.3189C34.6107 64.6317 34.4967 64.4054 33.9587 64.4054H23.527C22.9698 64.4054 22.875 64.5749 22.875 65.3189V68.973Z" fill="#FFFFFD"/>
<path d="M30.0485 88.9811C30.5391 88.9811 30.7007 88.7795 30.7007 87.8276V69.3723C30.7007 68.4879 30.5796 68.2188 30.0485 68.2188H27.44C26.9494 68.2188 26.7878 68.4204 26.7878 69.3723V87.8276C26.7878 88.8134 26.9089 88.9811 27.44 88.9811H30.0485Z" fill="#FFFFFD"/>
<path d="M35.2155 68.973C35.2155 69.6602 35.3294 69.8865 35.8674 69.8865H46.2991C46.799 69.8865 46.9511 69.7169 46.9511 68.973V65.3189C46.9511 64.6317 46.8372 64.4054 46.2991 64.4054H35.8674C35.3103 64.4054 35.2155 64.5749 35.2155 65.3189V68.973Z" fill="#FFFFFD"/>
<path d="M42.389 88.9811C42.8796 88.9811 43.0411 88.7795 43.0411 87.8276V69.3723C43.0411 68.4879 42.9201 68.2188 42.389 68.2188H39.7804C39.2898 68.2188 39.1283 68.4204 39.1283 69.3723V87.8276C39.1283 88.8134 39.2493 88.9811 39.7804 88.9811H42.389Z" fill="#FFFFFD"/>
<path d="M65.1576 76.7759C65.431 77.0811 65.8742 77.0811 66.1476 76.7759L66.6424 76.2236C66.9159 75.9185 66.9159 75.4238 66.6424 75.1187L65.0797 73.375L66.642 71.6309C66.9154 71.3257 66.9154 70.8311 66.642 70.5259L66.1472 69.9736C65.8737 69.6685 65.4306 69.6685 65.1571 69.9736L62.6047 72.8223C62.3313 73.1274 62.3313 73.6221 62.6047 73.9272L65.1576 76.7759ZM69.358 76.2241L69.8528 76.7764C70.1262 77.0815 70.5694 77.0815 70.8429 76.7764L73.3953 73.9277C73.6687 73.6226 73.6687 73.1279 73.3953 72.8228L70.8429 69.9741C70.5694 69.6689 70.1262 69.6689 69.8528 69.9741L69.358 70.5264C69.0846 70.8315 69.0846 71.3262 69.358 71.6313L70.9203 73.375L69.358 75.1191C69.0846 75.4243 69.0846 75.9189 69.358 76.2241ZM81.3 84.3125H70.6924C70.66 85.2798 70.0488 85.875 69.26 85.875H66.6C65.7823 85.875 65.1554 85.022 65.1663 84.3125H54.7C54.315 84.3125 54 84.6641 54 85.0938V85.875C54 87.5938 55.26 89 56.8 89H79.2C80.74 89 82 87.5938 82 85.875V85.0938C82 84.6641 81.685 84.3125 81.3 84.3125ZM79.2 66.3438C79.2 65.0547 78.255 64 77.1 64H58.9C57.745 64 56.8 65.0547 56.8 66.3438V82.75H79.2V66.3438ZM76.4 79.625H59.6V67.125H76.4V79.625Z" fill="#FFFFFD"/>
</svg>
