<svg width="60" height="60" viewBox="0 0 60 60" fill="none" xmlns="http://www.w3.org/2000/svg">
<path d="M55 32.5C55 35.275 52.775 37.5 50 37.5H10C8.67392 37.5 7.40215 36.9732 6.46447 36.0355C5.52678 35.0979 5 33.8261 5 32.5C5 31.1739 5.52678 29.9021 6.46447 28.9645C7.40215 28.0268 8.67392 27.5 10 27.5H32.5L38.75 32.5L45 27.5H50C51.3261 27.5 52.5979 28.0268 53.5355 28.9645C54.4732 29.9021 55 31.1739 55 32.5ZM30 7.5C7.5 7.5 7.5 22.5 7.5 22.5H52.5C52.5 22.5 52.5 7.5 30 7.5ZM7.5 45C7.5 49.15 10.85 52.5 15 52.5H45C49.15 52.5 52.5 49.15 52.5 45V42.5H7.5V45Z" fill="black"/>
</svg>
